<svg xmlns="http://www.w3.org/2000/svg" width="64" height="64" viewBox="0 0 64 64">
  <path fill="none" stroke="#ff0808" stroke-width="2" opacity=".8" d="M7 47 53 13"/>
  <path fill="none" stroke="#fff" stroke-width="5" stroke-linecap="round" stroke-linejoin="round" d="M10 44 50 17"/>
  <path fill="#fff" d="M50 15c5-2 8 4 5 8l-7 1 1-8Z"/>
  <path fill="none" stroke="#fff" stroke-width="5" stroke-linecap="round" stroke-linejoin="round" d="M9 45c5-3 15-3 19 1 2 10-5 17-16 15C4 59 2 50 9 45Z"/>
  <path fill="none" stroke="#fff" stroke-width="5" stroke-linecap="round" stroke-linejoin="round" d="M30 46c8 5 18 4 24-1 0 11-9 18-20 15-8-2-12-8-10-15"/>
  <path fill="#fff" d="M26 43c3-4 7-4 11 0l-4 5c-2-2-4-2-6 0l-4-4 3-1Z"/>
  <path fill="#ff0808" d="M11 33 4 29l8-2Zm42 4 8 3-8 3Zm-9-22 2-9 5 7Z"/>
</svg>
