<svg xmlns="http://www.w3.org/2000/svg" viewBox="0 0 640 420" role="img" aria-labelledby="title desc">
  <title id="title">VisionFakerZ mark</title>
  <desc id="desc">A red angular VFZ monogram with white glasses.</desc>
  <rect width="640" height="420" fill="none"/>
  <path fill="#ff0808" d="M58 30h154l84 163L386 30h197l-48 72H391l-35 62h-66l-95 169L58 30Z"/>
  <path fill="#ff0808" d="M379 136h152l-55 105H324l28-51h66l24-45h-63v-9Z"/>
  <path fill="#ff0808" d="M447 145h13l-57 96h-13l57-96Zm27 0h13l-57 96h-13l57-96Zm27 0h13l-57 96h-13l57-96Zm27 0h13l-57 96h-13l57-96Z"/>
  <path fill="#fff" d="M329 292c-20 0-39-8-48-24l-10-18c-5-9-2-20 7-25l98-64c8-5 17 6 9 11l-86 57c-6 4-4 13 3 13 22 0 46-1 67-5 15-3 28-6 42-1l31 11c5 2 5 10 0 12l-17 6c-4 19-23 32-47 32-20 0-39-9-48-25-7 12-23 20-42 20Zm-33-37c-10 0-17 4-15 12 4 13 23 18 38 13 12-4 18-13 15-21-2-4-12-4-38-4Zm75 5c6 19 41 24 54 4-23 2-39 1-54-4Z"/>
  <path fill="#fff" d="M385 166c1-8 8-13 15-10 7 4 6 15-2 17l-13 4v-11Z"/>
</svg>
